<?xml version="1.0" encoding="UTF-8"?>
<svg xmlns="http://www.w3.org/2000/svg" xmlns:xlink="http://www.w3.org/1999/xlink" version="1.1" viewBox="0 0 384 114">
  <defs>
    <style>
      .cls-1 {
        fill: #97df0f;
      }

      .cls-2 {
        fill: url(#linear-gradient);
      }

      .cls-3 {
        fill: #ff74bf;
      }

      .cls-4 {
        fill: #c5efff;
      }

      .cls-5 {
        fill: #6ed10e;
      }

      .cls-6 {
        fill: #6ec410;
      }

      .cls-7 {
        fill: #2c2a50;
      }

      .cls-8 {
        fill: #f5f5f5;
      }

      .cls-9 {
        fill: #060436;
      }
    </style>
    <linearGradient id="linear-gradient" x1="43.7" y1="1.7" x2="77.3" y2="108.8" gradientUnits="userSpaceOnUse">
      <stop offset=".2" stop-color="#a2e30c"/>
      <stop offset="1" stop-color="#6ece0f"/>
    </linearGradient>
  </defs>
  <!-- Generator: Adobe Illustrator 28.7.1, SVG Export Plug-In . SVG Version: 1.2.0 Build 142)  -->
  <g>
    <g id="Layer_1">
      <path class="cls-9" d="M164.3,75.2c8.6,0,13.2-5,15.5-9.6l-7.9-3.7c-1.3,3.1-4.3,5.1-7.6,5.2-5.8,0-9.9-4.5-9.9-10.3s4.1-10.3,9.9-10.3c3.3,0,6.3,2.1,7.6,5.2l7.9-3.8c-2.3-4.6-6.9-9.5-15.5-9.5s-19.3,7.4-19.3,18.4,8.3,18.4,19.3,18.4h0ZM191.2,74.5v-35.6h-8.2v35.6h8.2ZM219.9,74.5v-16.1c0-8-5.8-10.3-12-10.3s-8.4,1.2-11.7,4l3.1,5.7c2-1.7,4.5-2.7,7.2-2.8,3.3,0,5.2,1.5,5.2,3.8v2.6c-1.5-1.9-4.6-3-8-3s-8.9,2.1-8.9,8.3,4.9,8.5,8.9,8.5,6.4-1.3,8-3.2v2.6s8.2,0,8.2,0ZM207.1,69.8c-2.1,0-4.1-1-4.1-3s2-3,4.1-3,3.7.6,4.6,1.8v2.3c-.9,1.2-2.8,1.9-4.6,1.9h0ZM235.2,75.2c7.4,0,11.7-3.5,11.7-8.4,0-10.6-14.9-7.6-14.9-10.5s1.3-1.8,3.2-1.8c3.1,0,6,1.3,7.6,2.8l3.1-5.8c-3.1-2.3-6.9-3.5-10.8-3.4-7.1,0-11.1,4-11.1,8.5,0,10.5,15,7.2,15,10.3s-1,1.8-3.5,1.8-7.1-1.8-9.1-3.5l-3.4,5.9c2.7,2.5,7.5,4,12.1,4h0ZM260.4,75.2c7.4,0,11.7-3.5,11.7-8.4,0-10.6-15-7.6-15-10.5s1.3-1.8,3.2-1.8c3.1,0,6,1.3,7.6,2.8l3.1-5.8c-3.1-2.3-6.9-3.5-10.8-3.4-7.1,0-11.1,4-11.1,8.5,0,10.5,15,7.2,15,10.3s-1,1.8-3.5,1.8-7.1-1.8-9.1-3.5l-3.4,5.9c2.7,2.5,7.5,4,12.1,4h0ZM290.9,74.5c11.2,0,19.2-6.8,19.2-17.8s-8.1-17.8-19.3-17.8h-14.9v35.6h15,0ZM290.9,66.5h-5.8v-19.6h5.8c6.5,0,9.8,4.3,9.8,9.8s-3.6,9.8-9.9,9.8h0ZM326.2,75.2c8.9,0,14.1-6.3,14.1-13.6s-5.2-13.5-14.1-13.5-14,6.2-14,13.5,5.2,13.6,14,13.6ZM326.2,67.9c-3.5,0-5.5-2.8-5.5-6.3s2-6.2,5.5-6.2,5.7,2.8,5.7,6.2-2,6.3-5.7,6.3ZM348.1,46.5c2.6,0,4.7-2.1,4.7-4.7s-2.1-4.7-4.7-4.7c-2.6,0-4.7,2.1-4.7,4.6,0,0,0,0,0,0,0,2.6,2.1,4.7,4.7,4.7,0,0,0,0,0,0ZM342.3,85c6.9,0,10-4.4,10-10.7v-25.6h-8.2v25.6c0,2.8-1.2,4.1-3.1,4.1s-2.3-.3-3.3-1.2l-2.1,6c2,1.3,3.3,1.8,6.8,1.8h0ZM369.9,75.2c8.9,0,14.1-6.3,14.1-13.6s-5.2-13.5-14.1-13.5-14,6.2-14,13.5,5.2,13.6,14,13.6h0ZM369.9,67.9c-3.5,0-5.5-2.8-5.5-6.3s2-6.2,5.5-6.2,5.7,2.8,5.7,6.2-2,6.3-5.7,6.3h0Z"/>
      <circle class="cls-4" cx="60.6" cy="58.3" r="54.8"/>
      <path class="cls-2" d="M18.5,0C21.5,0,24,2.5,24,5.5s-2.5,5.5-5.5,5.5-5.5-2.5-5.5-5.5S15.5,0,18.5,0ZM90.3,34.3c-3.8-12.7-8.7-15.4-15.9-17.5-3.9-1.1-15.5.6-20.6,1.7-4.5-5.1-17.1-14.2-22.5-13h0c-9.1,1.9,0,9.2,1.4,13.4,1.6,4.9,2,6.3,1.9,7.7-3.5,2-6.8,4.2-8.1,5.8-4.7,5.9-7,11-2.6,23.5,3.7,10.4,14.1,43.2,17.5,53.6,11.2,4.2,23.9,4.8,36.2.8,12.9-4.2,23.2-12.8,29.8-23.6-3.8-11.5-14-42.2-17-52.5Z"/>
      <path class="cls-6" d="M93.2,43.6c-1.2-3.8-2.2-7-2.9-9.2-.9-3-1.9-5.5-2.9-7.5-11.8-2.8-43.6-.6-65.6,21.2.3,2.3,1,4.9,2.1,7.9.8,2.2,1.8,5.3,3.1,9,8.5-9.4,34.1-27,66.2-21.4Z"/>
      <circle class="cls-9" cx="46" cy="62.8" r="2.6"/>
      <circle class="cls-9" cx="76.7" cy="52.8" r="2.6"/>
      <path class="cls-7" d="M64.6,70c-1.6.5-6,1.5-9.3,1-4.2-.5-11.2.3-10.8,7,.4,6.7,9.1,17.1,27,11.6h.4c17.7-6.2,18.7-19.7,15-25.3-3.6-5.7-9.8-2.2-12.8.6-2.4,2.3-6.5,4.1-8.1,4.6l-1.4.4h0Z"/>
      <path class="cls-3" d="M87.1,77.4c-6.1-3.3-13.2-4-19.8-1.8-6.7,2.2-12.1,7-15.1,13.3,4.4,2.4,10.8,3.3,19.3.8h.4c8.5-3.1,13.1-7.6,15.2-12.3Z"/>
      <path class="cls-8" d="M80.6,75.2c-1.2,1.6,0,4.2,1.3,6.1-1.8-1.4-4.1-2.5-5.7-1.4-1.8,1.1-1.5,4-.9,6.3-1.2-1.9-3-3.9-5.5-3.1-2.6.9-2.8,3.7-2.6,6-.8-2.3-2.3-4.9-4.5-4.8-2,.1-3.2,2.5-3.8,4.6,0-2.4-.6-5.3-2.5-5.9-2.4-.7-4.8,2.2-6.1,4.4,4.4,3.4,11.5,5.2,21.4,2.1h.4c9.8-3.5,14.5-9.2,16.1-14.5-2.3-1-5.9-1.9-7.4,0Z"/>
      <path class="cls-9" d="M85.9,23.9c-11.4-3-42.5-1.6-64.7,20.9-1.2-.7-2.5-1.3-3.9-1.8-5.6-1.9-11.8-1.5-17.1,1,1.7,4.8,5.7,8.9,11.4,10.8,1.1.4,2.2.7,3.4.9-1,.5-2,1-2.9,1.7-5,3.4-7.8,8.4-8.1,13.5,5.6,1,11.8-.2,16.8-3.6,2.7-1.8,4.7-4.1,6.1-6.6,9.3-9.6,34.2-25.9,65.4-20.4.8-.2-2.2-11.6-6.3-16.4Z"/>
      <path class="cls-1" d="M122.9,50.2c-2.7-2.7-8.3-3.7-10.4-3.2-1.5-8.8-4.2-.4-6.1,2.2-2.8,1.2-9.6,6.4-9.6,6.4l7.6,23.2s8.1-20,18-26.4c.8-.5,1.1-1.5.5-2.1Z"/>
      <path class="cls-1" d="M7.8,88.7c.6-3.6,4.4-7.7,6.3-8.4-3.8-7.8,3.1-2.8,6.1-1.8,2.9-.7,11.2-.4,11.2-.4l7.3,22.6s-17.8-11.1-29.3-10.4c-.9,0-1.8-.6-1.6-1.5Z"/>
      <path class="cls-5" d="M99.5,53.5c-1.5,1.1-2.7,2-2.7,2l7.6,23.2s1.8-4.5,4.8-9.9c-6.7-6.3-9.2-12.5-9.7-15.3Z"/>
      <path class="cls-5" d="M29.3,95.5c5.4,2.5,9.4,5,9.4,5l-7.3-22.6s-1.4,0-3.2,0c1.2,2.4,2.8,8.8,1.1,17.6Z"/>
    </g>
  </g>
</svg>